<svg xmlns="http://www.w3.org/2000/svg" xmlns:xlink="http://www.w3.org/1999/xlink" width="160" height="160" viewBox="0 0 160 160">
  <defs>
    <clipPath id="clip-path">
      <path id="Pfad_424" data-name="Pfad 424" d="M75.574-53.744c-11.259-.927-21.188-3.169-28.842-7.161A94.235,94.235,0,0,1,46.555-41c8.252,5.186,16.2,4.528,24.1,3A34.151,34.151,0,0,0,75.574-53.744Z" fill="none" clip-rule="evenodd"/>
    </clipPath>
    <clipPath id="clip-path-2">
      <path id="Pfad_423" data-name="Pfad 423" d="M74.574-54.042c-10.483-.889-19.728-3.037-26.854-6.862a92.932,92.932,0,0,1-.164,19.075c7.683,4.97,15.081,4.339,22.435,2.875A33.417,33.417,0,0,0,74.574-54.042Z" fill="none" clip-rule="evenodd"/>
    </clipPath>
  </defs>
  <g id="Gruppe_1091" data-name="Gruppe 1091" transform="translate(-880 -1776)">
    <circle id="Ellipse_1" data-name="Ellipse 1" cx="80" cy="80" r="80" transform="translate(880 1776)" fill="#fff"/>
    <g id="Gruppe_1070" data-name="Gruppe 1070" transform="translate(914.891 1921.001)">
      <path id="Pfad_390" data-name="Pfad 390" d="M12.365-17.357l17.16.979C24.271,1.014,20.694,4.454,12.365-17.357Z" fill="#b5babb" fill-rule="evenodd"/>
      <path id="Pfad_391" data-name="Pfad 391" d="M48.172-15.61l17.16.979C60.077,2.761,56.5,6.2,48.172-15.61Z" fill="#b5babb" fill-rule="evenodd"/>
      <path id="Pfad_392" data-name="Pfad 392" d="M3.762-107.842c-2.155-4.308-2.029-7.857,3.493-9.606.081-6.736,1.814-9.389,5.24-7.86,1.511-3.727,4.947-4.206,9.607-2.62,1.512-5.039,6.425-3.039,7.86,0,4.578-1.575,7.314.245,8.733,2.62,5.694.077,5.578,3.639,4.367,7.86,6,1.82,5.764,5.423,3.493,9.606,3.971,2.622,4.379,6.088.873,10.48.921,2.594.678,4.983-1.747,6.987a4.917,4.917,0,0,1-1.747,6.113,2.339,2.339,0,0,1,0,3.674,5.6,5.6,0,0,1,1.747,5.059c2.084,3.245,1.851,5.8,0,7.86a6.7,6.7,0,0,1,0,6.113c9.45,5.822,19.932,7.173,30.567,7.86,2.329-2.794,4.658-2.519,6.987,0,2.595-1.64,4.33-1.164,4.367,3.493,2.365,1.159,4.039,2.417.873,4.367-.356,2.963-1.846,4.072-4.367,3.493,1.844,1.9,2.856,4.469,1.747,8.733a5.5,5.5,0,0,1,0,5.24c1.15,5.264-.6,7.987-2.62,10.48.049,2.761-.7,4.643-2.62,5.24-.732,4.159-2.343,6.48-5.24,6.113C71.7.758,67.723,4.458,62.275-9.155l-23.58-.873c-3.6,11.1-8.213,11.243-13.973-.873C16.134-12.066,8.329-14.466,7.255-27.495c-2.314-3.652-2.605-6.656,0-8.733-3.341-4.78-5.507-9.756-1.747-15.72-2.755-1.9-3.124-4.587-1.747-7.86-.75-3.491.326-4.99,1.747-6.113C3.934-70,3.019-73.982,6.382-77.275a4.786,4.786,0,0,1,0-3.313c-2.2-4.03-2.889-7.614-1.747-10.661-2.5-1.431-2.983-3.5-1.747-6.113C-.987-101.781-1.219-105.39,3.762-107.842Z" fill="#ccd0d0" fill-rule="evenodd"/>
      <path id="Pfad_393" data-name="Pfad 393" d="M10.748-109.588C2.225-89.617,21.336-85.577,26.194-86c4.709-.405,21.383-3.914,13.374-22.719-2.583.569-4.419-.41-5.24-3.493.2,4.337-5.8,4.512-5.24-.874-1.131,3.942-5.628,3.883-5.24-1.746-1.639,6.784-3.718,7.044-6.113,2.62C20.011-107.654,11.88-104.319,10.748-109.588Z" fill="#ececec" fill-rule="evenodd"/>
      <path id="Pfad_394" data-name="Pfad 394" d="M13.368-117.448c-.814.22-1.371.618-.873,1.746-1.68-.747-1.612.545-.873,2.62-3.905-.452-8.845-8.621-8.221-11.491C3.917-126.953,9.986-121.232,13.368-117.448Z" fill="#ececec" fill-rule="evenodd"/>
      <path id="Pfad_395" data-name="Pfad 395" d="M36.533-117.448c.814.22,1.371.618.873,1.746,1.68-.747,1.612.545.873,2.62,3.906-.452,8.845-8.621,8.221-11.491C45.985-126.953,39.916-121.232,36.533-117.448Z" fill="#ececec" fill-rule="evenodd"/>
      <path id="Pfad_396" data-name="Pfad 396" d="M13.361-101.957a7.614,7.614,0,0,1,1.592-1.133,4.521,4.521,0,0,1,.622-.265,2.459,2.459,0,0,1,.83-.138,2.678,2.678,0,0,1,1.455.37,7.618,7.618,0,0,1,1.564,1.162.479.479,0,0,0,.67.1.479.479,0,0,0,.095-.67,8.218,8.218,0,0,0-1.085-1.6,4.5,4.5,0,0,0-1.092-.9,3.234,3.234,0,0,0-1.619-.458,2.793,2.793,0,0,0-.912.142,3.67,3.67,0,0,0-1.142.6,4.568,4.568,0,0,0-.656.607,8.311,8.311,0,0,0-1.08,1.6.478.478,0,0,0,.087.67A.478.478,0,0,0,13.361-101.957Z" fill="#5b5b5b" fill-rule="evenodd"/>
      <path id="Pfad_397" data-name="Pfad 397" d="M31.7-101.957a7.611,7.611,0,0,1,1.592-1.133,4.522,4.522,0,0,1,.622-.265,2.458,2.458,0,0,1,.83-.138,2.678,2.678,0,0,1,1.456.37,7.621,7.621,0,0,1,1.564,1.162.479.479,0,0,0,.67.1.479.479,0,0,0,.095-.67,8.213,8.213,0,0,0-1.085-1.6,4.5,4.5,0,0,0-1.092-.9,3.234,3.234,0,0,0-1.619-.458,2.794,2.794,0,0,0-.912.142,3.669,3.669,0,0,0-1.142.6,4.557,4.557,0,0,0-.656.607,8.312,8.312,0,0,0-1.081,1.6.478.478,0,0,0,.087.67A.479.479,0,0,0,31.7-101.957Z" fill="#5b5b5b" fill-rule="evenodd"/>
      <path id="Pfad_398" data-name="Pfad 398" d="M20.034-92.245c2.226,1.687,5.323.593,5.066-2.7" fill="none" stroke="#5b5b5b" stroke-linecap="round" stroke-linejoin="round" stroke-width="1"/>
      <path id="Pfad_399" data-name="Pfad 399" d="M25.127-94.742a12.98,12.98,0,0,0,2.349-3.34.983.983,0,0,0,.012-.848.983.983,0,0,0-.653-.542,7.423,7.423,0,0,0-3.446.016,1,1,0,0,0-.654.532,1,1,0,0,0-.018.843A9.867,9.867,0,0,0,25.127-94.742Z" fill="#5b5b5b" stroke="#5b5b5b" stroke-linecap="round" stroke-linejoin="round" stroke-width="1" fill-rule="evenodd"/>
      <path id="Pfad_400" data-name="Pfad 400" d="M30.181-92.245c-2.226,1.687-5.323.593-5.066-2.7" fill="none" stroke="#5b5b5b" stroke-linecap="round" stroke-linejoin="round" stroke-width="1"/>
      <path id="Pfad_401" data-name="Pfad 401" d="M75.574-53.744c-11.259-.927-21.188-3.169-28.842-7.161A94.235,94.235,0,0,1,46.555-41c8.252,5.186,16.2,4.528,24.1,3A34.151,34.151,0,0,0,75.574-53.744Z" fill="#48a586" fill-rule="evenodd"/>
      <g id="Gruppe_1069" data-name="Gruppe 1069" clip-path="url(#clip-path)">
        <path id="Pfad_402" data-name="Pfad 402" d="M74.574-54.042c-10.483-.889-19.728-3.037-26.854-6.862a92.932,92.932,0,0,1-.164,19.075c7.683,4.97,15.081,4.339,22.435,2.875A33.417,33.417,0,0,0,74.574-54.042Z" fill="#5cb09a" fill-rule="evenodd"/>
        <g id="Gruppe_1068" data-name="Gruppe 1068" clip-path="url(#clip-path-2)">
          <path id="Pfad_403" data-name="Pfad 403" d="M47.555-57a66.439,66.439,0,0,0,27.019,6" fill="none" stroke="#9acfc1" stroke-linecap="round" stroke-linejoin="round" stroke-width="0.5"/>
          <path id="Pfad_404" data-name="Pfad 404" d="M47.555-53a66.439,66.439,0,0,0,27.019,6" fill="none" stroke="#9acfc1" stroke-linecap="round" stroke-linejoin="round" stroke-width="0.5"/>
          <path id="Pfad_405" data-name="Pfad 405" d="M47.555-48.9a66.439,66.439,0,0,0,27.019,6" fill="none" stroke="#9acfc1" stroke-linecap="round" stroke-linejoin="round" stroke-width="0.5"/>
          <path id="Pfad_406" data-name="Pfad 406" d="M47.555-44.9a66.439,66.439,0,0,0,27.019,6" fill="none" stroke="#9acfc1" stroke-linecap="round" stroke-linejoin="round" stroke-width="0.5"/>
          <path id="Pfad_407" data-name="Pfad 407" d="M47.555-48.9l3.819-2.349L52.651-47l3.862-2.529.028,3.917,4.5-2.692.748,3.972,3-3.363.862,3.7,3.028-3.194,1.028,3.917L72.651-47l1,2.1" fill="none" stroke="#9acfc1" stroke-linecap="round" stroke-linejoin="round" stroke-width="0.5"/>
          <path id="Pfad_408" data-name="Pfad 408" d="M47.555-57l3.1-2,1,3.64,3-2.64,1,4,4-3,1.028,4.3L63.651-56l1,4,4-3,.277,3.609L71.651-55l2,4,1-3" fill="none" stroke="#9acfc1" stroke-linecap="round" stroke-linejoin="round" stroke-width="0.5"/>
          <path id="Pfad_409" data-name="Pfad 409" d="M46.651-41l3-3,1,4,2.806-2.526L54.651-38l2.277-3.419,1.7,4.111,1.945-3.111L61.651-37l2.917-2.668,1.138,2.111L67.571-39.3l1.723,1.111" fill="none" stroke="#9acfc1" stroke-linecap="round" stroke-linejoin="round" stroke-width="0.5"/>
          <path id="Pfad_410" data-name="Pfad 410" d="M49.6-54.609a.5.5,0,0,1,.5.5.5.5,0,0,1-.5.5.5.5,0,0,1-.5-.5A.5.5,0,0,1,49.6-54.609Z" fill="#9acfc1" fill-rule="evenodd"/>
          <path id="Pfad_411" data-name="Pfad 411" d="M53.279-53.2a.5.5,0,0,1,.5.5.5.5,0,0,1-.5.5.5.5,0,0,1-.5-.5A.5.5,0,0,1,53.279-53.2Z" fill="#9acfc1" fill-rule="evenodd"/>
          <path id="Pfad_412" data-name="Pfad 412" d="M57.211-52.117a.5.5,0,0,1,.5.5.5.5,0,0,1-.5.5.5.5,0,0,1-.5-.5A.5.5,0,0,1,57.211-52.117Z" fill="#9acfc1" fill-rule="evenodd"/>
          <path id="Pfad_413" data-name="Pfad 413" d="M60.561-51.2a.5.5,0,0,1,.5.5.5.5,0,0,1-.5.5.5.5,0,0,1-.5-.5A.5.5,0,0,1,60.561-51.2Z" fill="#9acfc1" fill-rule="evenodd"/>
          <path id="Pfad_414" data-name="Pfad 414" d="M64.6-50.4a.5.5,0,0,1,.5.5.5.5,0,0,1-.5.5.5.5,0,0,1-.5-.5A.5.5,0,0,1,64.6-50.4Z" fill="#9acfc1" fill-rule="evenodd"/>
          <path id="Pfad_415" data-name="Pfad 415" d="M68.34-49.93a.5.5,0,0,1,.5.5.5.5,0,0,1-.5.5.5.5,0,0,1-.5-.5A.5.5,0,0,1,68.34-49.93Z" fill="#9acfc1" fill-rule="evenodd"/>
          <path id="Pfad_416" data-name="Pfad 416" d="M72.009-49.688a.5.5,0,0,1,.5.5.5.5,0,0,1-.5.5.5.5,0,0,1-.5-.5A.5.5,0,0,1,72.009-49.688Z" fill="#9acfc1" fill-rule="evenodd"/>
          <path id="Pfad_417" data-name="Pfad 417" d="M49.514-46.58a.5.5,0,0,1,.5.5.5.5,0,0,1-.5.5.5.5,0,0,1-.5-.5A.5.5,0,0,1,49.514-46.58Z" fill="#9acfc1" fill-rule="evenodd"/>
          <path id="Pfad_418" data-name="Pfad 418" d="M52.892-45.417a.5.5,0,0,1,.5.5.5.5,0,0,1-.5.5.5.5,0,0,1-.5-.5A.5.5,0,0,1,52.892-45.417Z" fill="#9acfc1" fill-rule="evenodd"/>
          <path id="Pfad_419" data-name="Pfad 419" d="M56.1-44.282a.5.5,0,0,1,.5.5.5.5,0,0,1-.5.5.5.5,0,0,1-.5-.5A.5.5,0,0,1,56.1-44.282Z" fill="#9acfc1" fill-rule="evenodd"/>
          <path id="Pfad_420" data-name="Pfad 420" d="M59.841-43.258a.5.5,0,0,1,.5.5.5.5,0,0,1-.5.5.5.5,0,0,1-.5-.5A.5.5,0,0,1,59.841-43.258Z" fill="#9acfc1" fill-rule="evenodd"/>
          <path id="Pfad_421" data-name="Pfad 421" d="M63.8-42.566a.5.5,0,0,1,.5.5.5.5,0,0,1-.5.5.5.5,0,0,1-.5-.5A.5.5,0,0,1,63.8-42.566Z" fill="#9acfc1" fill-rule="evenodd"/>
          <path id="Pfad_422" data-name="Pfad 422" d="M68.147-42.04a.5.5,0,0,1,.5.5.5.5,0,0,1-.5.5.5.5,0,0,1-.5-.5A.5.5,0,0,1,68.147-42.04Z" fill="#9acfc1" fill-rule="evenodd"/>
        </g>
      </g>
    </g>
  </g>
</svg>
