<svg xmlns="http://www.w3.org/2000/svg" xmlns:xlink="http://www.w3.org/1999/xlink" width="160" height="160" viewBox="0 0 160 160">
  <defs>
    <clipPath id="clip-path">
      <path id="Pfad_382" data-name="Pfad 382" d="M90.566-44.9C79.772-62.19,66.623-78.414,50.849-89.793c-15.03,10.808-27.8,26.134-39.716,43.17-35.9-71.685,25.349-77.024,38.728-76.923C64.691-123.434,126.6-115.468,90.566-44.9Z" fill="none" clip-rule="evenodd"/>
    </clipPath>
  </defs>
  <g id="Gruppe_1090" data-name="Gruppe 1090" transform="translate(-880 -1776)">
    <circle id="Ellipse_1" data-name="Ellipse 1" cx="80" cy="80" r="80" transform="translate(880 1776)" fill="#fff"/>
    <g id="Guru" transform="translate(909.164 1918.382)">
      <path id="Pfad_374" data-name="Pfad 374" d="M11.133-39.716H90.566V-94.974H11.133Z" fill="#f5d9be" fill-rule="evenodd"/>
      <path id="Pfad_375" data-name="Pfad 375" d="M11.139-39.716l39.714-6.907,39.714,6.907c-.227,16.361-9.5,30.368-38.319,39.293A4.611,4.611,0,0,1,49.468-.44C20.18-9.907,9.746-23.513,11.139-39.716Z" fill="#b5babb" fill-rule="evenodd"/>
      <path id="Pfad_376" data-name="Pfad 376" d="M51.618-48.94a1.473,1.473,0,0,0-.964-1.538c-23.6-8.726-22.072,14.033-43.135,9.2a.283.283,0,0,0-.3.115.283.283,0,0,0,0,.318C18.229-24.968,49.343-28.159,51.618-48.94Z" fill="#ccd0d0" fill-rule="evenodd"/>
      <path id="Pfad_377" data-name="Pfad 377" d="M50.081-48.94a1.473,1.473,0,0,1,.964-1.538c23.6-8.726,22.072,14.033,43.135,9.2a.283.283,0,0,1,.3.115.283.283,0,0,1,0,.318C83.47-24.968,52.356-28.159,50.081-48.94Z" fill="#ccd0d0" fill-rule="evenodd"/>
      <g id="Gruppe_1067" data-name="Gruppe 1067" clip-path="url(#clip-path)">
        <path id="Pfad_378" data-name="Pfad 378" d="M73.3-63.891H109.56v-55.257H73.3Z" fill="#52b08f" fill-rule="evenodd"/>
        <path id="Pfad_379" data-name="Pfad 379" d="M81.932-103.608H42.215L61.21-56.984,99.2-39.716C99.621-74.926,92.4-90.334,81.932-103.608Z" fill="#48a586" fill-rule="evenodd"/>
        <path id="Pfad_380" data-name="Pfad 380" d="M76.751-103.608c-27.822-2.613-54.612-6.128-81.159,15.542L-6.135-63.891l17.268,25.9C28.555-67.024,47.662-96.361,76.751-103.608Z" fill="#49ab85" fill-rule="evenodd"/>
        <path id="Pfad_381" data-name="Pfad 381" d="M66.391-132.963,4.226-129.509-2.681-89.793c23.644-11.969,51.509-17.4,86.368-11.615a28.621,28.621,0,0,1,13.786-7.38Z" fill="#5cb09a" fill-rule="evenodd"/>
      </g>
      <path id="Pfad_383" data-name="Pfad 383" d="M27.976-61.586a13.663,13.663,0,0,0,3.982,2.781,8.767,8.767,0,0,0,1.965.585,6.947,6.947,0,0,0,1.383.123,8.892,8.892,0,0,0,3.347-.727,13.193,13.193,0,0,0,3.992-2.767.718.718,0,0,0,.142-1,.718.718,0,0,0-1-.142,13.522,13.522,0,0,1-3.257,1.3,12.393,12.393,0,0,1-1.3.249,11.358,11.358,0,0,1-1.908.091,13.066,13.066,0,0,1-1.583-.093,13.2,13.2,0,0,1-1.621-.3,14.624,14.624,0,0,1-3.288-1.256.718.718,0,0,0-1,.153A.718.718,0,0,0,27.976-61.586Z" fill="#5b5b5b" fill-rule="evenodd"/>
      <path id="Pfad_384" data-name="Pfad 384" d="M59.058-61.586a13.666,13.666,0,0,0,3.982,2.781,8.768,8.768,0,0,0,1.965.585,6.948,6.948,0,0,0,1.383.123,8.892,8.892,0,0,0,3.347-.727,13.193,13.193,0,0,0,3.992-2.767.718.718,0,0,0,.142-1,.718.718,0,0,0-1-.142,13.522,13.522,0,0,1-3.257,1.3,12.4,12.4,0,0,1-1.3.249,11.357,11.357,0,0,1-1.908.091,13.068,13.068,0,0,1-1.583-.093,13.192,13.192,0,0,1-1.621-.3,14.622,14.622,0,0,1-3.288-1.256.718.718,0,0,0-1,.153A.718.718,0,0,0,59.058-61.586Z" fill="#5b5b5b" fill-rule="evenodd"/>
      <path id="Pfad_385" data-name="Pfad 385" d="M50.849-81.159a5.183,5.183,0,0,1,5.18,5.18,5.183,5.183,0,0,1-5.18,5.18,5.183,5.183,0,0,1-5.18-5.18A5.183,5.183,0,0,1,50.849-81.159Z" fill="#fff" fill-rule="evenodd"/>
    </g>
  </g>
</svg>
