<svg id="Discord-Logo-White" xmlns="http://www.w3.org/2000/svg" width="21" height="24" viewBox="0 0 21 24">
  <path id="Pfad_425" data-name="Pfad 425" d="M95.424,103.9a1.337,1.337,0,1,0,1.224,1.332A1.278,1.278,0,0,0,95.424,103.9Zm4.38,0a1.337,1.337,0,1,0,1.224,1.332A1.278,1.278,0,0,0,99.8,103.9Z" transform="translate(-87.096 -93.832)" fill="#fff"/>
  <path id="Pfad_426" data-name="Pfad 426" d="M53.54,20H37.46A2.466,2.466,0,0,0,35,22.472V38.7a2.466,2.466,0,0,0,2.46,2.472H51.068l-.636-2.22,1.536,1.428L53.42,41.72,56,44V22.472A2.466,2.466,0,0,0,53.54,20ZM48.908,35.672s-.432-.516-.792-.972a3.787,3.787,0,0,0,2.172-1.428,6.866,6.866,0,0,1-1.38.708,7.9,7.9,0,0,1-1.74.516,8.406,8.406,0,0,1-3.108-.012,10.073,10.073,0,0,1-1.764-.516,7.032,7.032,0,0,1-.876-.408c-.036-.024-.072-.036-.108-.06a.166.166,0,0,1-.048-.036c-.216-.12-.336-.2-.336-.2a3.732,3.732,0,0,0,2.1,1.416c-.36.456-.8,1-.8,1a4.351,4.351,0,0,1-3.66-1.824,16.07,16.07,0,0,1,1.728-7,5.934,5.934,0,0,1,3.372-1.26l.12.144a8.1,8.1,0,0,0-3.156,1.572s.264-.144.708-.348A9.012,9.012,0,0,1,44.06,26.2a1.182,1.182,0,0,1,.2-.024,10.153,10.153,0,0,1,2.424-.024A9.782,9.782,0,0,1,50.3,27.308a7.986,7.986,0,0,0-2.988-1.524l.168-.192a5.934,5.934,0,0,1,3.372,1.26,16.07,16.07,0,0,1,1.728,7A4.387,4.387,0,0,1,48.908,35.672Z" transform="translate(-35 -20)" fill="#fff"/>
</svg>
