<svg id="Instagram" xmlns="http://www.w3.org/2000/svg" width="26.88" height="26.88" viewBox="0 0 26.88 26.88">
  <path id="Pfad_427" data-name="Pfad 427" d="M13.44-503.841c-3.65,0-4.108.016-5.541.081a9.865,9.865,0,0,0-3.262.625,6.588,6.588,0,0,0-2.38,1.55,6.588,6.588,0,0,0-1.55,2.38,9.865,9.865,0,0,0-.625,3.262C.015-494.509,0-494.051,0-490.4s.015,4.108.081,5.541A9.865,9.865,0,0,0,.706-481.6a6.589,6.589,0,0,0,1.55,2.381,6.588,6.588,0,0,0,2.38,1.55,9.867,9.867,0,0,0,3.262.625c1.434.065,1.891.081,5.541.081s4.108-.015,5.541-.081a9.866,9.866,0,0,0,3.262-.625,6.589,6.589,0,0,0,2.381-1.55,6.589,6.589,0,0,0,1.55-2.381,9.865,9.865,0,0,0,.625-3.262c.065-1.434.081-1.891.081-5.541s-.015-4.108-.081-5.541a9.865,9.865,0,0,0-.625-3.262,6.588,6.588,0,0,0-1.55-2.38,6.589,6.589,0,0,0-2.381-1.55,9.865,9.865,0,0,0-3.262-.625C17.548-503.826,17.09-503.841,13.44-503.841Zm0,2.422c3.589,0,4.014.014,5.431.078a7.438,7.438,0,0,1,2.5.463,4.164,4.164,0,0,1,1.545,1.005,4.164,4.164,0,0,1,1.005,1.545,7.436,7.436,0,0,1,.463,2.5c.065,1.417.078,1.842.078,5.431s-.014,4.014-.078,5.431a7.436,7.436,0,0,1-.463,2.5,4.164,4.164,0,0,1-1.005,1.545,4.164,4.164,0,0,1-1.545,1.005,7.437,7.437,0,0,1-2.5.463c-1.417.065-1.842.078-5.431.078s-4.014-.014-5.431-.078a7.437,7.437,0,0,1-2.5-.463,4.165,4.165,0,0,1-1.545-1.005,4.163,4.163,0,0,1-1.005-1.545,7.437,7.437,0,0,1-.463-2.5c-.065-1.417-.078-1.842-.078-5.431s.014-4.014.078-5.431a7.437,7.437,0,0,1,.463-2.5,4.164,4.164,0,0,1,1.005-1.545,4.165,4.165,0,0,1,1.545-1.005,7.438,7.438,0,0,1,2.5-.463C9.426-501.406,9.851-501.419,13.44-501.419Z" transform="translate(0 503.841)" fill="#fff"/>
  <path id="Pfad_428" data-name="Pfad 428" d="M129.458-369.9a4.48,4.48,0,0,1-4.48-4.48,4.48,4.48,0,0,1,4.48-4.48,4.48,4.48,0,0,1,4.48,4.48A4.48,4.48,0,0,1,129.458-369.9Zm0-11.382a6.9,6.9,0,0,0-6.9,6.9,6.9,6.9,0,0,0,6.9,6.9,6.9,6.9,0,0,0,6.9-6.9A6.9,6.9,0,0,0,129.458-381.285Z" transform="translate(-116.018 387.823)" fill="#fff"/>
  <path id="Pfad_429" data-name="Pfad 429" d="M359.392-415.013a1.613,1.613,0,0,1-1.613,1.613,1.613,1.613,0,0,1-1.613-1.613,1.613,1.613,0,0,1,1.613-1.613A1.613,1.613,0,0,1,359.392-415.013Z" transform="translate(-337.164 421.279)" fill="#fff"/>
</svg>
