<svg xmlns="http://www.w3.org/2000/svg" width="29" height="20.432" viewBox="0 0 29 20.432">
  <g id="Youtube" transform="translate(0 124)">
    <path id="Pfad_430" data-name="Pfad 430" d="M11.534-109.472V-118.1l7.58,4.312Zm16.86-11.337a3.644,3.644,0,0,0-2.564-2.581C23.569-124,14.5-124,14.5-124s-9.069,0-11.33.61A3.644,3.644,0,0,0,.606-120.81,38.233,38.233,0,0,0,0-113.784a38.232,38.232,0,0,0,.606,7.025,3.644,3.644,0,0,0,2.564,2.581c2.262.61,11.33.61,11.33.61s9.069,0,11.33-.61a3.644,3.644,0,0,0,2.564-2.581A38.221,38.221,0,0,0,29-113.784,38.222,38.222,0,0,0,28.394-120.81Z" fill="#fff"/>
  </g>
</svg>
